<svg width="200" height="200" viewBox="0 0 200 200" xmlns="http://www.w3.org/2000/svg">
  <!-- Brain circle background -->
  <circle cx="100" cy="100" r="90" fill="#4A90E2" />
  
  <!-- Brain paths -->
  <path d="M60,100 C60,70 80,50 100,50 C120,50 140,70 140,100 C140,130 120,150 100,150 C80,150 60,130 60,100" 
        fill="none" stroke="white" stroke-width="8"/>
  
  <!-- Neural network connections -->
  <circle cx="80" cy="85" r="5" fill="white"/>
  <circle cx="120" cy="85" r="5" fill="white"/>
  <circle cx="100" cy="115" r="5" fill="white"/>
  
  <line x1="80" y1="85" x2="100" y2="115" stroke="white" stroke-width="2"/>
  <line x1="120" y1="85" x2="100" y2="115" stroke="white" stroke-width="2"/>
  
  <!-- Eye symbol -->
  <path d="M85,75 C90,70 110,70 115,75 C110,80 90,80 85,75" 
        fill="white" stroke="white" stroke-width="2"/>
        
  <!-- Text -->
  <text x="100" y="180" text-anchor="middle" fill="white" font-family="Arial" font-weight="bold" font-size="24">
    VLA
  </text>
</svg>
